<svg xmlns="http://www.w3.org/2000/svg" width="322" height="322" viewBox="0 0 322 322" fill="none">
    <path opacity="0.8" stroke-width=".1rem" d="M154.781 0.678192V11.0257" stroke="white" stroke-linecap="round"/>
    <path opacity="0.8" stroke-width=".1rem" d="M171.314 0.890045L170.25 11.1826" stroke="white" stroke-linecap="round"/>
    <path opacity="0.8" stroke-width=".1rem" d="M143.765 1.51306L144.487 11.8354" stroke="white" stroke-linecap="round"/>
    <path opacity="0.8" stroke-width=".1rem" d="M160.271 0.587219L159.927 10.929" stroke="white" stroke-linecap="round"/>
    <path opacity="0.8" stroke-width=".1rem" d="M132.685 3.10333L134.125 13.3501" stroke="white" stroke-linecap="round"/>
    <path opacity="0.8" stroke-width=".1rem" d="M149.085 1.02896L149.463 11.3696" stroke="white" stroke-linecap="round"/>
    <path opacity="0.8" stroke-width=".1rem" d="M121.741 5.46265L123.893 15.584" stroke="white" stroke-linecap="round"/>
    <path opacity="0.8" stroke-width=".1rem" d="M137.958 2.24997L139.056 12.539" stroke="white" stroke-linecap="round"/>
    <path opacity="0.8" stroke-width=".1rem" d="M110.99 8.57956L113.842 18.5262" stroke="white" stroke-linecap="round"/>
    <path opacity="0.8" stroke-width=".1rem" d="M126.942 4.24414L128.756 14.4315" stroke="white" stroke-linecap="round"/>
    <path opacity="0.8" stroke-width=".1rem" d="M100.481 12.439L104.02 22.1624" stroke="white" stroke-linecap="round"/>
    <path opacity="0.8" stroke-width=".1rem" d="M116.093 7.00192L118.612 17.0379" stroke="white" stroke-linecap="round"/>
    <path opacity="0.8" stroke-width=".1rem" d="M90.2676 17.0219L94.4763 26.4748" stroke="white" stroke-linecap="round"/>
    <path opacity="0.8" stroke-width=".1rem" d="M105.462 10.5098L108.676 20.3456" stroke="white" stroke-linecap="round"/>
    <path opacity="0.8" stroke-width=".1rem" d="M80.3989 22.3062L85.2568 31.4425" stroke="white" stroke-linecap="round"/>
    <path opacity="0.8" stroke-width=".1rem" d="M95.1016 14.7507L98.9937 24.3383" stroke="white" stroke-linecap="round"/>
    <path opacity="0.8" stroke-width=".1rem" d="M70.9224 28.266L76.4057 37.0412" stroke="white" stroke-linecap="round"/>
    <path opacity="0.8" stroke-width=".1rem" d="M85.0623 19.7039L89.6137 28.9967" stroke="white" stroke-linecap="round"/>
    <path opacity="0.8" stroke-width=".1rem" d="M61.8853 34.8723L67.9674 43.2436" stroke="white" stroke-linecap="round"/>
    <path opacity="0.8" stroke-width=".1rem" d="M75.3933 25.3454L80.5819 34.298" stroke="white" stroke-linecap="round"/>
    <path opacity="0.8" stroke-width=".1rem" d="M53.3306 42.0929L59.9818 50.0196" stroke="white" stroke-linecap="round"/>
    <path opacity="0.8" stroke-width=".1rem" d="M66.1414 31.6477L71.9418 40.2166" stroke="white" stroke-linecap="round"/>
    <path opacity="0.8" stroke-width=".1rem" d="M45.3005 49.8928L52.4885 57.3361" stroke="white" stroke-linecap="round"/>
    <path opacity="0.8" stroke-width=".1rem" d="M57.3516 38.5799L63.7356 46.7233" stroke="white" stroke-linecap="round"/>
    <path opacity="0.8" stroke-width=".1rem" d="M37.8342 58.2337L45.5239 65.1575" stroke="white" stroke-linecap="round"/>
    <path opacity="0.8" stroke-width=".1rem" d="M49.0664 46.1084L56.003 53.7866" stroke="white" stroke-linecap="round"/>
    <path opacity="0.8" stroke-width=".1rem" d="M30.9675 67.0751L39.1215 73.4457" stroke="white" stroke-linecap="round"/>
    <path opacity="0.8" stroke-width=".1rem" d="M41.3269 54.1966L48.7822 61.3722" stroke="white" stroke-linecap="round"/>
    <path opacity="0.8" stroke-width=".1rem" d="M24.7349 76.3741L33.3133 82.1603" stroke="white" stroke-linecap="round"/>
    <path opacity="0.8" stroke-width=".1rem" d="M34.1707 62.8048L42.1083 69.443" stroke="white" stroke-linecap="round"/>
    <path opacity="0.8" stroke-width=".1rem" d="M19.1658 86.0851L28.127 91.2588" stroke="white" stroke-linecap="round"/>
    <path opacity="0.8" stroke-width=".1rem" d="M27.6321 71.8914L36.0134 77.9597" stroke="white" stroke-linecap="round"/>
    <path opacity="0.8" stroke-width=".1rem" d="M14.2876 96.1609L23.5879 100.697" stroke="white" stroke-linecap="round"/>
    <path opacity="0.8" stroke-width=".1rem" d="M21.7432 81.4119L30.5274 86.8807" stroke="white" stroke-linecap="round"/>
    <path opacity="0.8" stroke-width=".1rem" d="M10.1243 106.552L19.7183 110.429" stroke="white" stroke-linecap="round"/>
    <path opacity="0.8" stroke-width=".1rem" d="M16.533 91.32L25.6773 96.1627" stroke="white" stroke-linecap="round"/>
    <path opacity="0.8" stroke-width=".1rem" d="M6.69604 117.209L16.5371 120.407" stroke="white" stroke-linecap="round"/>
    <path opacity="0.8" stroke-width=".1rem" d="M12.0261 101.567L21.486 105.76" stroke="white" stroke-linecap="round"/>
    <path opacity="0.8" stroke-width=".1rem" d="M4.01953 128.079L14.0597 130.582" stroke="white" stroke-linecap="round"/>
    <path opacity="0.8" stroke-width=".1rem" d="M8.24536 112.104L17.9747 115.627" stroke="white" stroke-linecap="round"/>
    <path opacity="0.8" stroke-width=".1rem" d="M2.10754 139.109L12.2978 140.906" stroke="white" stroke-linecap="round"/>
    <path opacity="0.8" stroke-width=".1rem" d="M5.20898 122.879L15.1604 125.715" stroke="white" stroke-linecap="round"/>
    <path opacity="0.8" stroke-width=".1rem" d="M0.969849 150.246L11.2607 151.327" stroke="white" stroke-linecap="round"/>
    <path opacity="0.8" stroke-width=".1rem" d="M2.93164 133.84L13.0566 135.974" stroke="white" stroke-linecap="round"/>
    <path opacity="0.8" stroke-width=".1rem" d="M0.611938 161.434L10.9531 161.796" stroke="white" stroke-linecap="round"/>
    <path opacity="0.8" stroke-width=".1rem" d="M1.42419 144.932L11.6734 146.355" stroke="white" stroke-linecap="round"/>
    <path opacity="0.8" stroke-width=".1rem" d="M1.03503 172.621L11.3762 172.26" stroke="white" stroke-linecap="round"/>
    <path opacity="0.8" stroke-width=".1rem" d="M0.694336 156.103L11.0178 156.808" stroke="white" stroke-linecap="round"/>
    <path opacity="0.8" stroke-width=".1rem" d="M2.23779 183.751L12.5286 182.669" stroke="white" stroke-linecap="round"/>
    <path opacity="0.8" stroke-width=".1rem" d="M0.745728 167.297L11.0932 167.28" stroke="white" stroke-linecap="round"/>
    <path opacity="0.8" stroke-width=".1rem" d="M4.21387 194.77L14.4042 192.973" stroke="white" stroke-linecap="round"/>
    <path opacity="0.8" stroke-width=".1rem" d="M1.57739 178.461L11.8985 177.722" stroke="white" stroke-linecap="round"/>
    <path opacity="0.8" stroke-width=".1rem" d="M6.95361 205.624L16.9938 203.12" stroke="white" stroke-linecap="round"/>
    <path opacity="0.8" stroke-width=".1rem" d="M3.18604 189.539L13.4304 188.082" stroke="white" stroke-linecap="round"/>
    <path opacity="0.8" stroke-width=".1rem" d="M10.4438 216.26L20.2849 213.063" stroke="white" stroke-linecap="round"/>
    <path opacity="0.8" stroke-width=".1rem" d="M5.56348 200.479L15.6813 198.311" stroke="white" stroke-linecap="round"/>
    <path opacity="0.8" stroke-width=".1rem" d="M14.6675 226.627L24.2615 222.751" stroke="white" stroke-linecap="round"/>
    <path opacity="0.8" stroke-width=".1rem" d="M8.69849 211.225L18.6404 208.357" stroke="white" stroke-linecap="round"/>
    <path opacity="0.8" stroke-width=".1rem" d="M19.6042 236.675L28.9045 232.139" stroke="white" stroke-linecap="round"/>
    <path opacity="0.8" stroke-width=".1rem" d="M12.5752 221.727L22.2928 218.172" stroke="white" stroke-linecap="round"/>
    <path opacity="0.8" stroke-width=".1rem" d="M25.23 246.353L34.1912 241.179" stroke="white" stroke-linecap="round"/>
    <path opacity="0.8" stroke-width=".1rem" d="M17.175 231.933L26.621 227.709" stroke="white" stroke-linecap="round"/>
    <path opacity="0.8" stroke-width=".1rem" d="M31.5168 255.616L40.0953 249.829" stroke="white" stroke-linecap="round"/>
    <path opacity="0.8" stroke-width=".1rem" d="M22.4756 241.793L31.6038 236.92" stroke="white" stroke-linecap="round"/>
    <path opacity="0.8" stroke-width=".1rem" d="M38.4346 264.417L46.5885 258.046" stroke="white" stroke-linecap="round"/>
    <path opacity="0.8" stroke-width=".1rem" d="M28.4514 251.259L37.2175 245.762" stroke="white" stroke-linecap="round"/>
    <path opacity="0.8" stroke-width=".1rem" d="M45.9495 272.714L53.6392 265.79" stroke="white" stroke-linecap="round"/>
    <path opacity="0.8" stroke-width=".1rem" d="M35.0725 260.286L43.4337 254.19" stroke="white" stroke-linecap="round"/>
    <path opacity="0.8" stroke-width=".1rem" d="M54.0247 280.467L61.2126 273.024" stroke="white" stroke-linecap="round"/>
    <path opacity="0.8" stroke-width=".1rem" d="M42.3074 268.828L50.223 262.164" stroke="white" stroke-linecap="round"/>
    <path opacity="0.8" stroke-width=".1rem" d="M62.6208 287.638L69.2721 279.711" stroke="white" stroke-linecap="round"/>
    <path opacity="0.8" stroke-width=".1rem" d="M50.1201 276.846L57.5516 269.645" stroke="white" stroke-linecap="round"/>
    <path opacity="0.8" stroke-width=".1rem" d="M71.6968 294.191L77.7789 285.82" stroke="white" stroke-linecap="round"/>
    <path opacity="0.8" stroke-width=".1rem" d="M58.4734 284.298L65.3845 276.597" stroke="white" stroke-linecap="round"/>
    <path opacity="0.8" stroke-width=".1rem" d="M81.2073 300.096L86.6906 291.321" stroke="white" stroke-linecap="round"/>
    <path opacity="0.8" stroke-width=".1rem" d="M67.3262 291.15L73.6832 282.985" stroke="white" stroke-linecap="round"/>
    <path opacity="0.8" stroke-width=".1rem" d="M91.1069 305.323L95.9648 296.186" stroke="white" stroke-linecap="round"/>
    <path opacity="0.8" stroke-width=".1rem" d="M76.6355 297.367L82.4075 288.779" stroke="white" stroke-linecap="round"/>
    <path opacity="0.8" stroke-width=".1rem" d="M101.347 309.846L105.556 300.393" stroke="white" stroke-linecap="round"/>
    <path opacity="0.8" stroke-width=".1rem" d="M86.356 302.92L91.5149 293.95" stroke="white" stroke-linecap="round"/>
    <path opacity="0.8" stroke-width=".1rem" d="M111.877 313.644L115.416 303.921" stroke="white" stroke-linecap="round"/>
    <path opacity="0.8" stroke-width=".1rem" d="M96.4399 307.782L100.961 298.474" stroke="white" stroke-linecap="round"/>
    <path opacity="0.8" stroke-width=".1rem" d="M122.647 316.699L125.499 306.752" stroke="white" stroke-linecap="round"/>
    <path opacity="0.8" stroke-width=".1rem" d="M106.838 311.928L110.699 302.327" stroke="white" stroke-linecap="round"/>
    <path opacity="0.8" stroke-width=".1rem" d="M133.604 318.994L135.755 308.873" stroke="white" stroke-linecap="round"/>
    <path opacity="0.8" stroke-width=".1rem" d="M117.5 315.338L120.682 305.492" stroke="white" stroke-linecap="round"/>
    <path opacity="0.8" stroke-width=".1rem" d="M144.694 320.52L146.134 310.273" stroke="white" stroke-linecap="round"/>
    <path opacity="0.8" stroke-width=".1rem" d="M128.375 317.997L130.861 307.953" stroke="white" stroke-linecap="round"/>
    <path opacity="0.8" stroke-width=".1rem" d="M155.863 321.268L156.585 310.946" stroke="white" stroke-linecap="round"/>
    <path opacity="0.8" stroke-width=".1rem" d="M139.408 319.891L141.188 309.697" stroke="white" stroke-linecap="round"/>
    <path opacity="0.8" stroke-width=".1rem" d="M167.198 321.451L167.198 311.103" stroke="white" stroke-linecap="round"/>
    <path opacity="0.8" stroke-width=".1rem" d="M150.664 321.238L151.728 310.945" stroke="white" stroke-linecap="round"/>
    <path opacity="0.8" stroke-width=".1rem" d="M178.223 320.422L177.501 310.1" stroke="white" stroke-linecap="round"/>
    <path opacity="0.8" stroke-width=".1rem" d="M161.736 321.349L162.08 311.008" stroke="white" stroke-linecap="round"/>
    <path opacity="0.8" stroke-width=".1rem" d="M189.304 318.832L187.864 308.585" stroke="white" stroke-linecap="round"/>
    <path opacity="0.8" stroke-width=".1rem" d="M172.922 320.908L172.544 310.567" stroke="white" stroke-linecap="round"/>
    <path opacity="0.8" stroke-width=".1rem" d="M200.247 316.473L198.096 306.351" stroke="white" stroke-linecap="round"/>
    <path opacity="0.8" stroke-width=".1rem" d="M184.05 319.687L182.951 309.398" stroke="white" stroke-linecap="round"/>
    <path opacity="0.8" stroke-width=".1rem" d="M210.999 313.356L208.147 303.409" stroke="white" stroke-linecap="round"/>
    <path opacity="0.8" stroke-width=".1rem" d="M195.065 317.692L193.251 307.505" stroke="white" stroke-linecap="round"/>
    <path opacity="0.8" stroke-width=".1rem" d="M221.507 309.497L217.968 299.773" stroke="white" stroke-linecap="round"/>
    <path opacity="0.8" stroke-width=".1rem" d="M205.915 314.935L203.395 304.899" stroke="white" stroke-linecap="round"/>
    <path opacity="0.8" stroke-width=".1rem" d="M231.721 304.913L227.512 295.461" stroke="white" stroke-linecap="round"/>
    <path opacity="0.8" stroke-width=".1rem" d="M216.545 311.427L213.331 301.591" stroke="white" stroke-linecap="round"/>
    <path opacity="0.8" stroke-width=".1rem" d="M241.59 299.629L236.732 290.493" stroke="white" stroke-linecap="round"/>
    <path opacity="0.8" stroke-width=".1rem" d="M226.906 307.186L223.013 297.598" stroke="white" stroke-linecap="round"/>
    <path opacity="0.8" stroke-width=".1rem" d="M251.066 293.669L245.583 284.894" stroke="white" stroke-linecap="round"/>
    <path opacity="0.8" stroke-width=".1rem" d="M236.945 302.233L232.393 292.94" stroke="white" stroke-linecap="round"/>
    <path opacity="0.8" stroke-width=".1rem" d="M260.103 287.063L254.021 278.692" stroke="white" stroke-linecap="round"/>
    <path opacity="0.8" stroke-width=".1rem" d="M246.614 296.591L241.425 287.638" stroke="white" stroke-linecap="round"/>
    <path opacity="0.8" stroke-width=".1rem" d="M268.658 279.842L262.007 271.916" stroke="white" stroke-linecap="round"/>
    <path opacity="0.8" stroke-width=".1rem" d="M255.866 290.289L250.066 281.72" stroke="white" stroke-linecap="round"/>
    <path opacity="0.8" stroke-width=".1rem" d="M276.688 272.043L269.5 264.599" stroke="white" stroke-linecap="round"/>
    <path opacity="0.8" stroke-width=".1rem" d="M264.656 283.357L258.272 275.213" stroke="white" stroke-linecap="round"/>
    <path opacity="0.8" stroke-width=".1rem" d="M284.154 263.702L276.465 256.778" stroke="white" stroke-linecap="round"/>
    <path opacity="0.8" stroke-width=".1rem" d="M272.94 275.828L266.004 268.15" stroke="white" stroke-linecap="round"/>
    <path opacity="0.8" stroke-width=".1rem" d="M291.021 254.86L282.867 248.49" stroke="white" stroke-linecap="round"/>
    <path opacity="0.8" stroke-width=".1rem" d="M280.68 267.74L273.225 260.564" stroke="white" stroke-linecap="round"/>
    <path opacity="0.8" stroke-width=".1rem" d="M297.253 245.561L288.675 239.775" stroke="white" stroke-linecap="round"/>
    <path opacity="0.8" stroke-width=".1rem" d="M287.837 259.132L279.899 252.493" stroke="white" stroke-linecap="round"/>
    <path opacity="0.8" stroke-width=".1rem" d="M302.822 235.85L293.861 230.676" stroke="white" stroke-linecap="round"/>
    <path opacity="0.8" stroke-width=".1rem" d="M294.375 250.045L285.994 243.977" stroke="white" stroke-linecap="round"/>
    <path opacity="0.8" stroke-width=".1rem" d="M307.7 225.774L298.4 221.238" stroke="white" stroke-linecap="round"/>
    <path opacity="0.8" stroke-width=".1rem" d="M300.264 240.525L291.479 235.056" stroke="white" stroke-linecap="round"/>
    <path opacity="0.8" stroke-width=".1rem" d="M311.864 215.383L302.27 211.507" stroke="white" stroke-linecap="round"/>
    <path opacity="0.8" stroke-width=".1rem" d="M305.474 230.616L296.33 225.774" stroke="white" stroke-linecap="round"/>
    <path opacity="0.8" stroke-width=".1rem" d="M315.292 204.726L305.451 201.528" stroke="white" stroke-linecap="round"/>
    <path opacity="0.8" stroke-width=".1rem" d="M309.981 220.369L300.521 216.176" stroke="white" stroke-linecap="round"/>
    <path opacity="0.8" stroke-width=".1rem" d="M317.969 193.856L307.929 191.353" stroke="white" stroke-linecap="round"/>
    <path opacity="0.8" stroke-width=".1rem" d="M313.761 209.832L304.032 206.309" stroke="white" stroke-linecap="round"/>
    <path opacity="0.8" stroke-width=".1rem" d="M319.88 182.826L309.69 181.029" stroke="white" stroke-linecap="round"/>
    <path opacity="0.8" stroke-width=".1rem" d="M316.798 199.057L306.846 196.221" stroke="white" stroke-linecap="round"/>
    <path opacity="0.8" stroke-width=".1rem" d="M321.018 171.69L310.727 170.608" stroke="white" stroke-linecap="round"/>
    <path opacity="0.8" stroke-width=".1rem" d="M319.075 188.097L308.95 185.962" stroke="white" stroke-linecap="round"/>
    <path opacity="0.8" stroke-width=".1rem" d="M321.376 160.501L311.035 160.14" stroke="white" stroke-linecap="round"/>
    <path opacity="0.8" stroke-width=".1rem" d="M320.582 177.004L310.333 175.581" stroke="white" stroke-linecap="round"/>
    <path opacity="0.8" stroke-width=".1rem" d="M320.953 149.314L310.612 149.675" stroke="white" stroke-linecap="round"/>
    <path opacity="0.8" stroke-width=".1rem" d="M321.312 165.833L310.989 165.129" stroke="white" stroke-linecap="round"/>
    <path opacity="0.8" stroke-width=".1rem" d="M319.75 138.184L309.459 139.266" stroke="white" stroke-linecap="round"/>
    <path opacity="0.8" stroke-width=".1rem" d="M321.261 154.639L310.914 154.656" stroke="white" stroke-linecap="round"/>
    <path opacity="0.8" stroke-width=".1rem" d="M317.774 127.166L307.584 128.963" stroke="white" stroke-linecap="round"/>
    <path opacity="0.8" stroke-width=".1rem" d="M320.429 143.475L310.108 144.214" stroke="white" stroke-linecap="round"/>
    <path opacity="0.8" stroke-width=".1rem" d="M315.035 116.312L304.995 118.815" stroke="white" stroke-linecap="round"/>
    <path opacity="0.8" stroke-width=".1rem" d="M318.821 132.397L308.576 133.854" stroke="white" stroke-linecap="round"/>
    <path opacity="0.8" stroke-width=".1rem" d="M311.544 105.675L301.703 108.873" stroke="white" stroke-linecap="round"/>
    <path opacity="0.8" stroke-width=".1rem" d="M316.443 121.458L306.325 123.626" stroke="white" stroke-linecap="round"/>
    <path opacity="0.8" stroke-width=".1rem" d="M307.32 95.3079L297.726 99.1841" stroke="white" stroke-linecap="round"/>
    <path opacity="0.8" stroke-width=".1rem" d="M313.309 110.711L303.367 113.58" stroke="white" stroke-linecap="round"/>
    <path opacity="0.8" stroke-width=".1rem" d="M302.384 85.2606L293.083 89.7967" stroke="white" stroke-linecap="round"/>
    <path opacity="0.8" stroke-width=".1rem" d="M309.432 100.209L299.714 103.764" stroke="white" stroke-linecap="round"/>
    <path opacity="0.8" stroke-width=".1rem" d="M296.758 75.5822L287.797 80.7559" stroke="white" stroke-linecap="round"/>
    <path opacity="0.8" stroke-width=".1rem" d="M304.832 90.0034L295.386 94.2277" stroke="white" stroke-linecap="round"/>
    <path opacity="0.8" stroke-width=".1rem" d="M290.471 66.3198L281.893 72.106" stroke="white" stroke-linecap="round"/>
    <path opacity="0.8" stroke-width=".1rem" d="M299.531 80.1433L290.403 85.0163" stroke="white" stroke-linecap="round"/>
    <path opacity="0.8" stroke-width=".1rem" d="M283.553 57.5185L275.4 63.889" stroke="white" stroke-linecap="round"/>
    <path opacity="0.8" stroke-width=".1rem" d="M293.555 70.677L284.789 76.1749" stroke="white" stroke-linecap="round"/>
    <path opacity="0.8" stroke-width=".1rem" d="M276.039 49.2211L268.349 56.1449" stroke="white" stroke-linecap="round"/>
    <path opacity="0.8" stroke-width=".1rem" d="M286.934 61.6506L278.573 67.7465" stroke="white" stroke-linecap="round"/>
    <path opacity="0.8" stroke-width=".1rem" d="M267.963 41.4682L260.775 48.9116" stroke="white" stroke-linecap="round"/>
    <path opacity="0.8" stroke-width=".1rem" d="M279.699 53.108L271.784 59.7724" stroke="white" stroke-linecap="round"/>
    <path opacity="0.8" stroke-width=".1rem" d="M259.367 34.2975L252.716 42.2241" stroke="white" stroke-linecap="round"/>
    <path opacity="0.8" stroke-width=".1rem" d="M271.886 45.0909L264.455 52.2912" stroke="white" stroke-linecap="round"/>
    <path opacity="0.8" stroke-width=".1rem" d="M250.291 27.7439L244.209 36.1152" stroke="white" stroke-linecap="round"/>
    <path opacity="0.8" stroke-width=".1rem" d="M263.533 37.6384L256.622 45.3396" stroke="white" stroke-linecap="round"/>
    <path opacity="0.8" stroke-width=".1rem" d="M240.78 21.8394L235.297 30.6146" stroke="white" stroke-linecap="round"/>
    <path opacity="0.8" stroke-width=".1rem" d="M254.68 30.7867L248.323 38.9512" stroke="white" stroke-linecap="round"/>
    <path opacity="0.8" stroke-width=".1rem" d="M230.881 16.6127L226.023 25.749" stroke="white" stroke-linecap="round"/>
    <path opacity="0.8" stroke-width=".1rem" d="M245.371 24.5693L239.599 33.1573" stroke="white" stroke-linecap="round"/>
    <path opacity="0.8" stroke-width=".1rem" d="M220.641 12.0893L216.432 21.5422" stroke="white" stroke-linecap="round"/>
    <path opacity="0.8" stroke-width=".1rem" d="M235.651 19.0164L230.492 27.9861" stroke="white" stroke-linecap="round"/>
    <path opacity="0.8" stroke-width=".1rem" d="M210.11 8.2912L206.571 18.0147" stroke="white" stroke-linecap="round"/>
    <path opacity="0.8" stroke-width=".1rem" d="M225.566 14.1551L221.046 23.4628" stroke="white" stroke-linecap="round"/>
    <path opacity="0.8" stroke-width=".1rem" d="M199.341 5.23697L196.488 15.1836" stroke="white" stroke-linecap="round"/>
    <path opacity="0.8" stroke-width=".1rem" d="M215.168 10.0089L211.308 19.6094" stroke="white" stroke-linecap="round"/>
    <path opacity="0.8" stroke-width=".1rem" d="M188.384 2.94141L186.232 13.0628" stroke="white" stroke-linecap="round"/>
    <path opacity="0.8" stroke-width=".1rem" d="M204.506 6.59833L201.325 16.4447" stroke="white" stroke-linecap="round"/>
    <path opacity="0.8" stroke-width=".1rem" d="M177.294 1.41574L175.854 11.6625" stroke="white" stroke-linecap="round"/>
    <path opacity="0.8" stroke-width=".1rem" d="M193.632 3.93982L191.145 13.9841" stroke="white" stroke-linecap="round"/>
    <path opacity="0.8" stroke-width=".1rem" d="M166.124 0.667389L165.402 10.9897" stroke="white" stroke-linecap="round"/>
    <path opacity="0.8" stroke-width=".1rem" d="M182.599 2.0463L180.819 12.2396" stroke="white" stroke-linecap="round"/>
</svg>