<svg width="1360" height="563" viewBox="0 0 1360 563" fill="none" xmlns="http://www.w3.org/2000/svg">
<path d="M178 482.571C178 510.99 170.718 531.499 156.155 544.099C141.591 556.7 119.206 563 89 563H3.8147e-06V0H89.8091C119.476 0 141.591 6.30025 156.155 18.9007C170.718 31.5012 178 52.0105 178 80.4286V482.571ZM97.0909 84.45C97.0909 76.4071 94.3939 72.3857 89 72.3857H80.9091V490.614H89C94.3939 490.614 97.0909 486.593 97.0909 478.55V84.45Z" fill="#F5F5F5"/>
<path d="M372 475.28C372 503.457 363.358 525.121 346.073 540.273C328.788 555.424 306.764 563 280 563C253.236 563 231.212 555.424 213.927 540.273C196.642 525.121 188 503.457 188 475.28V0H271.636V479.268C271.636 487.242 274.424 491.229 280 491.229C285.576 491.229 288.364 487.242 288.364 479.268V0H372V475.28Z" fill="#F5F5F5"/>
<path d="M476.909 83.0267C476.909 75.1194 474.273 71.1657 469 71.1657C463.727 71.1657 461.091 75.1194 461.091 83.0267V479.973C461.091 487.881 463.727 491.834 469 491.834C474.273 491.834 476.909 487.881 476.909 479.973V324.199H556V476.02C556 503.959 547.827 525.44 531.482 540.464C515.136 555.488 494.309 563 469 563C443.691 563 422.864 555.488 406.518 540.464C390.173 525.44 382 503.959 382 476.02V86.9803C382 59.5684 390.304 38.2186 406.914 22.9312C423.523 7.64372 444.482 0 469.791 0C495.1 0 515.795 7.51191 531.877 22.5358C547.959 37.5597 556 59.0412 556 86.9803V214.288H476.909V83.0267Z" fill="#F5F5F5"/>
<path d="M749 178.551C749 190.348 748.723 200.803 748.168 209.919C747.614 219.034 746.089 226.943 743.593 233.645C741.098 240.347 737.493 245.843 732.78 250.133C728.066 254.422 721.827 257.908 714.064 260.589V262.197C730.146 267.023 739.989 275.87 743.593 288.739C747.198 301.607 749 320.106 749 344.234V482.571C749 510.989 741.514 531.499 726.541 544.099C711.568 556.7 688.555 563 657.5 563H566V0H658.332C688.832 0 711.568 6.30021 726.541 18.9007C741.514 31.5012 749 52.0105 749 80.4286V178.551ZM665.818 84.45C665.818 76.4071 663.045 72.3857 657.5 72.3857H649.182V225.2H657.5C663.045 225.2 665.818 221.179 665.818 213.136V84.45ZM665.818 309.65C665.818 301.607 663.045 297.586 657.5 297.586H649.182V490.614H657.5C663.045 490.614 665.818 486.593 665.818 478.55V309.65Z" fill="#F5F5F5"/>
<path d="M943 563H862.04L857.624 428.684H837.016L832.6 563H759L799.48 0H902.52L943 563ZM855.416 356.299L850.264 185.79L848.056 88.4714H846.584L844.376 185.79L839.224 356.299H855.416Z" fill="#F5F5F5"/>
<path d="M1168 563H1068.46L1013.52 128.686H1011.93L1024.67 309.65L1028.65 563H953V0H1052.54L1107.48 434.314H1109.07L1096.33 253.35L1092.35 0H1168V563Z" fill="#F5F5F5"/>
<path d="M1360 266.476V558.256H1277.27V526.626L1275.62 525.836C1271.21 537.96 1265.14 547.185 1257.42 553.511C1249.7 559.837 1240.87 563 1230.95 563C1215.5 563 1202.82 555.488 1192.89 540.464C1182.96 525.44 1178 503.959 1178 476.02V86.9803C1178 59.5684 1186.69 38.2186 1204.06 22.9312C1221.43 7.64372 1243.35 0 1269.83 0C1296.3 0 1317.95 7.51191 1334.77 22.5358C1351.59 37.5597 1360 59.0412 1360 86.9803V214.288H1277.27V83.0267C1277.27 75.1194 1274.52 71.1657 1269 71.1657C1263.48 71.1657 1260.73 75.1194 1260.73 83.0267V483.136C1260.73 491.043 1263.48 494.997 1269 494.997C1274.52 494.997 1277.27 491.043 1277.27 483.136V337.642H1269V266.476H1360Z" fill="#F5F5F5"/>
</svg>
